<svg viewBox="0 0 36 36" fill="none" xmlns="http://www.w3.org/2000/svg">
    <path
        d="M27.188 13.1315V27.6473C27.188 28.514 26.716 29.3118 25.9565 29.7291V29.7291C20.8898 32.513 14.7515 32.513 9.68482 29.7291V29.7291C8.92529 29.3118 8.45332 28.514 8.45332 27.6473V13.1315"
        stroke="currentColor" stroke-width="1.57838" stroke-linecap="round" />
    <path
        d="M5.77713 19.445L4.09261 18.7266C3.29039 18.3845 2.88928 18.2134 2.59003 17.9703C1.9809 17.4755 1.61268 16.7437 1.57837 15.9597C1.56152 15.5745 1.6632 15.1505 1.86657 14.3024V14.3024C2.53465 11.5163 2.8687 10.1233 3.48521 8.99743C4.73907 6.70762 6.87077 5.02667 9.38983 4.34131C10.6284 4.00433 12.0609 4.00433 14.926 4.00433H20.2979C23.2789 4.00433 24.7695 4.00433 26.0582 4.3709C28.4494 5.05109 30.4839 6.63173 31.7341 8.78064C32.4078 9.93875 32.7763 11.383 33.5131 14.2716V14.2716C33.7401 15.1613 33.8536 15.6061 33.8357 16.012C33.8024 16.7657 33.4604 17.4725 32.89 17.9663C32.5828 18.2322 32.1635 18.4193 31.325 18.7934L29.8646 19.445"
        stroke="currentColor" stroke-width="1.57838" stroke-linecap="round" />
</svg>