<svg viewBox="0 0 36 36" fill="none" xmlns="http://www.w3.org/2000/svg">
    <path d="M16.5073 17.1411V30.7105" stroke="currentColor" stroke-width="1.56059" stroke-linecap="round" />
    <path
        d="M13.2288 24.8741L11.4399 24.076C10.4128 23.6177 9.89932 23.3886 9.52307 23.0629C8.82443 22.4581 8.40551 21.5924 8.36476 20.6692C8.34281 20.1721 8.48181 19.6272 8.75982 18.5375V18.5375C9.66239 14.9995 10.1137 13.2305 10.9389 11.812C12.4701 9.18005 14.962 7.24409 17.8908 6.41099C19.4692 5.96201 21.2949 5.96201 24.9462 5.96201H28.2328"
        stroke="currentColor" stroke-width="1.56059" stroke-linecap="round" />
    <path
        d="M27.9807 12.7941C28.4116 12.7941 28.761 12.4448 28.761 12.0138C28.761 11.5829 28.4116 11.2336 27.9807 11.2336V12.7941ZM27.9807 11.2336C24.4481 11.2336 21.6582 8.53263 21.6582 5.28957H20.0976C20.0976 9.47394 23.6678 12.7941 27.9807 12.7941V11.2336Z"
        fill="currentColor" />
</svg>