<svg viewBox="0 0 36 36" fill="none" xmlns="http://www.w3.org/2000/svg">
    <path d="M19.4917 17.1411V30.7105" stroke="currentColor" stroke-width="1.5606" stroke-linecap="round" />
    <path
        d="M22.7699 24.8741L24.5587 24.076C25.5857 23.6178 26.0992 23.3887 26.4755 23.0629C27.1741 22.4581 27.593 21.5924 27.6338 20.6692C27.6557 20.1721 27.5168 19.6272 27.2388 18.5375V18.5375C26.3362 14.9995 25.8849 13.2305 25.0597 11.812C23.5285 9.17999 21.0366 7.24398 18.1077 6.41087C16.5293 5.96188 14.7036 5.96188 11.0523 5.96188H7.76622"
        stroke="currentColor" stroke-width="1.5606" stroke-linecap="round" />
    <path
        d="M8.01803 12.7941C7.58708 12.7941 7.23773 12.4447 7.23773 12.0138C7.23773 11.5828 7.58708 11.2335 8.01803 11.2335V12.7941ZM8.01803 11.2335C11.5505 11.2335 14.3403 8.53256 14.3403 5.28944H15.9009C15.9009 9.47382 12.3308 12.7941 8.01803 12.7941V11.2335Z"
        fill="currentColor" />
</svg>