<svg viewBox="0 0 36 36" fill="none" xmlns="http://www.w3.org/2000/svg">
    <path
        d="M27.2754 13.0026V27.3759C27.2754 28.2341 26.8081 29.0241 26.056 29.4373V29.4373C21.039 32.1939 14.961 32.1939 9.94406 29.4373V29.4373C9.19199 29.0241 8.72465 28.2341 8.72465 27.3759V13.0026"
        stroke="currentColor" stroke-width="1.56288" stroke-linecap="round" />
    <path
        d="M6.07449 19.2541L4.40652 18.5427C3.61217 18.2039 3.215 18.0346 2.91868 17.7939C2.31554 17.3039 1.95093 16.5793 1.91696 15.803C1.90027 15.4216 2.00096 15.0017 2.20233 14.1619V14.1619C2.86385 11.4032 3.19462 10.0239 3.80507 8.90906C5.04663 6.64173 7.1574 4.97728 9.65173 4.29865C10.8782 3.96498 12.2966 3.96498 15.1335 3.96498H20.4527C23.4045 3.96498 24.8804 3.96498 26.1564 4.32795C28.5242 5.00146 30.5387 6.56658 31.7766 8.69439C32.4437 9.84114 32.8086 11.2712 33.5382 14.1314V14.1314C33.7629 15.0124 33.8753 15.4529 33.8576 15.8548C33.8246 16.6011 33.4859 17.301 32.9211 17.7899C32.617 18.0532 32.2018 18.2384 31.3716 18.6089L29.9254 19.2541"
        stroke="currentColor" stroke-width="1.56288" stroke-linecap="round" />
    <path
        d="M12.2579 3.42145C12.2579 6.42373 14.8286 8.85756 17.9998 8.85756C21.171 8.85756 23.7417 6.42373 23.7417 3.42145"
        stroke="currentColor" stroke-width="1.56288" />
</svg>